<svg width="20.101" height="20.1" viewBox="0 0 20.101 20.1" xmlns="http://www.w3.org/2000/svg"><g id="svgGroup" stroke-linecap="round" fill-rule="evenodd" font-size="9pt" stroke="#059fff" stroke-width="0.25mm" fill="#059fff" style="stroke:#059fff;stroke-width:0.25mm;fill:#059fff"><path d="M 3.094 17.193 A 9.626 9.626 0 0 0 10.05 20.1 A 12.908 12.908 0 0 0 10.984 20.067 A 9.691 9.691 0 0 0 17.25 17.325 A 9.046 9.046 0 0 0 19.639 13.392 A 11.541 11.541 0 0 0 20.1 10.05 A 9.338 9.338 0 0 0 19.233 6.043 A 10.432 10.432 0 0 0 17.025 3 Q 13.95 0 10.05 0 A 13.22 13.22 0 0 0 7.272 0.277 A 8.969 8.969 0 0 0 2.7 2.7 A 8.891 8.891 0 0 0 0.349 6.96 A 12.937 12.937 0 0 0 0 10.05 Q 0 14.1 3 17.1 A 12.475 12.475 0 0 0 3.094 17.193 Z" vector-effect="non-scaling-stroke"/></g></svg>