<svg width="104.2" height="28" viewBox="0 0 104.2 28" xmlns="http://www.w3.org/2000/svg"><g id="svgGroup" stroke-linecap="round" fill-rule="evenodd" font-size="9pt" stroke="#ffffff" stroke-width="0.25mm" fill="#ffffff" style="stroke:#ffffff;stroke-width:0.25mm;fill:#ffffff"><path d="M 94.1 28 L 91.8 24.5 Q 97 20.9 98 15.4 A 4.51 4.51 0 0 1 96.893 15.723 A 6.143 6.143 0 0 1 95.9 15.8 A 7.115 7.115 0 0 1 93.66 15.462 A 5.921 5.921 0 0 1 91.3 14 A 6.073 6.073 0 0 1 89.528 10.084 A 8.164 8.164 0 0 1 89.5 9.4 A 7.184 7.184 0 0 1 89.79 7.31 A 5.648 5.648 0 0 1 91.4 4.75 A 6.558 6.558 0 0 1 95.222 3.053 A 8.816 8.816 0 0 1 96.2 3 A 8.703 8.703 0 0 1 99.023 3.44 A 7.379 7.379 0 0 1 101.95 5.3 A 7.419 7.419 0 0 1 103.738 8.414 Q 104.085 9.567 104.171 10.951 A 15.193 15.193 0 0 1 104.2 11.9 A 16.731 16.731 0 0 1 102.647 18.856 A 21.056 21.056 0 0 1 101.55 20.95 A 18.958 18.958 0 0 1 94.249 27.918 A 22.391 22.391 0 0 1 94.1 28 Z M 75.7 28 L 73.4 24.5 Q 78.6 20.9 79.6 15.4 A 4.51 4.51 0 0 1 78.493 15.723 A 6.143 6.143 0 0 1 77.5 15.8 A 7.115 7.115 0 0 1 75.26 15.462 A 5.921 5.921 0 0 1 72.9 14 A 6.073 6.073 0 0 1 71.128 10.084 A 8.164 8.164 0 0 1 71.1 9.4 A 7.184 7.184 0 0 1 71.39 7.31 A 5.648 5.648 0 0 1 73 4.75 A 6.558 6.558 0 0 1 76.822 3.053 A 8.816 8.816 0 0 1 77.8 3 A 8.703 8.703 0 0 1 80.623 3.44 A 7.379 7.379 0 0 1 83.55 5.3 A 7.419 7.419 0 0 1 85.338 8.414 Q 85.685 9.567 85.771 10.951 A 15.193 15.193 0 0 1 85.8 11.9 A 16.731 16.731 0 0 1 84.247 18.856 A 21.056 21.056 0 0 1 83.15 20.95 A 18.958 18.958 0 0 1 75.849 27.918 A 22.391 22.391 0 0 1 75.7 28 Z M 10.1 0 L 12.4 3.5 Q 7.2 7.1 6.2 12.6 A 4.51 4.51 0 0 1 7.307 12.277 A 6.143 6.143 0 0 1 8.3 12.2 A 7.115 7.115 0 0 1 10.54 12.538 A 5.921 5.921 0 0 1 12.9 14 A 6.073 6.073 0 0 1 14.672 17.916 A 8.164 8.164 0 0 1 14.7 18.6 A 6.734 6.734 0 0 1 14.317 20.914 A 5.888 5.888 0 0 1 12.8 23.2 A 6.51 6.51 0 0 1 8.796 24.964 A 8.711 8.711 0 0 1 8 25 A 8.703 8.703 0 0 1 5.177 24.56 A 7.379 7.379 0 0 1 2.25 22.7 A 7.419 7.419 0 0 1 0.462 19.586 Q 0.115 18.433 0.029 17.049 A 15.193 15.193 0 0 1 0 16.1 A 16.859 16.859 0 0 1 1.46 9.327 A 21.385 21.385 0 0 1 2.65 7 Q 5.3 2.5 10.1 0 Z M 28.5 0 L 30.8 3.5 Q 25.6 7.1 24.6 12.6 A 4.51 4.51 0 0 1 25.707 12.277 A 6.143 6.143 0 0 1 26.7 12.2 A 7.115 7.115 0 0 1 28.94 12.538 A 5.921 5.921 0 0 1 31.3 14 A 6.073 6.073 0 0 1 33.072 17.916 A 8.164 8.164 0 0 1 33.1 18.6 A 6.734 6.734 0 0 1 32.717 20.914 A 5.888 5.888 0 0 1 31.2 23.2 A 6.51 6.51 0 0 1 27.196 24.964 A 8.711 8.711 0 0 1 26.4 25 A 8.703 8.703 0 0 1 23.577 24.56 A 7.379 7.379 0 0 1 20.65 22.7 A 7.419 7.419 0 0 1 18.862 19.586 Q 18.515 18.433 18.429 17.049 A 15.193 15.193 0 0 1 18.4 16.1 A 16.859 16.859 0 0 1 19.86 9.327 A 21.385 21.385 0 0 1 21.05 7 Q 23.7 2.5 28.5 0 Z" vector-effect="non-scaling-stroke"/></g></svg>